HIERARCHY
ROOT Hips
{
     OFFSET 1.88212 96.90440 -13.34250
     CHANNELS 6 Xposition Yposition Zposition Zrotation Xrotation Yrotation
     JOINT Spine
     {
          OFFSET 0.00000 11.89050 0.00000
          CHANNELS 3 Zrotation Xrotation Yrotation
          JOINT Spine1
          {
               OFFSET -0.00000 25.65740 0.12766
               CHANNELS 3 Zrotation Xrotation Yrotation
               JOINT HEad
               {
                    OFFSET 0.00000 8.73416 0.01134
                    CHANNELS 3 Zrotation Xrotation Yrotation
                    End Site
                    {
                         OFFSET -0.29000 12.77420 2.51395
                    }
               }
               JOINT LeftShoulder1
               {
                    OFFSET 8.99000 -0.36225 -0.22000
                    CHANNELS 3 Zrotation Xrotation Yrotation
                    JOINT LeftArm
                    {
                         OFFSET 10.28270 -0.00338 0.32212
                         CHANNELS 3 Zrotation Xrotation Yrotation
                         JOINT LeftForeArm
                         {
                              OFFSET 32.76690 0.09914 -1.42434
                              CHANNELS 3 Zrotation Xrotation Yrotation
                              JOINT LeftHand
                              {
                                   OFFSET 27.56430 0.08536 1.02216
                                   CHANNELS 3 Zrotation Xrotation Yrotation
                                   End Site
                                   {
                                        OFFSET 16.74430 -0.60000 1.50291
                                   }
                              }
                         }
                    }
               }
               JOINT RightShoulder
               {
                    OFFSET -8.99000 -0.36225 -0.22000
                    CHANNELS 3 Zrotation Xrotation Yrotation
                    JOINT RightArm
                    {
                         OFFSET -10.28270 -0.00338 0.32212
                         CHANNELS 3 Zrotation Xrotation Yrotation
                         JOINT RightForeArm
                         {
                              OFFSET -32.89710 0.09914 -1.42434
                              CHANNELS 3 Zrotation Xrotation Yrotation
                              JOINT RightHand
                              {
                                   OFFSET -27.49210 0.08536 1.02216
                                   CHANNELS 3 Zrotation Xrotation Yrotation
                                   End Site
                                   {
                                        OFFSET -16.63120 -0.60000 1.50291
                                   }
                              }
                         }
                    }
               }
          }
     }
     JOINT LeftUpLeg
     {
          OFFSET 8.94580 -8.66707 0.10165
          CHANNELS 3 Zrotation Xrotation Yrotation
          JOINT LeftLeg
          {
               OFFSET 0.00000 -44.42270 1.37270
               CHANNELS 3 Zrotation Xrotation Yrotation
               JOINT LeftFoot
               {
                    OFFSET -0.25355 -42.09240 -1.46059
                    CHANNELS 3 Zrotation Xrotation Yrotation
                    JOINT LeftToes
                    {
                         OFFSET -0.04000 -4.41509 8.49910
                         CHANNELS 3 Zrotation Xrotation Yrotation
                         End Site
                         {
                              OFFSET 0.08000 -0.04745 9.77979
                         }
                    }
               }
          }
     }
     JOINT RightUpLeg
     {
          OFFSET -8.94580 -8.66707 0.10165
          CHANNELS 3 Zrotation Xrotation Yrotation
          JOINT RightLeg
          {
               OFFSET 0.00000 -44.42270 1.37270
               CHANNELS 3 Zrotation Xrotation Yrotation
               JOINT RightFoot
               {
                    OFFSET 0.25355 -42.09240 -1.46059
                    CHANNELS 3 Zrotation Xrotation Yrotation
                    JOINT RightToes
                    {
                         OFFSET 0.04000 -4.41509 8.49910
                         CHANNELS 3 Zrotation Xrotation Yrotation
                         End Site
                         {
                              OFFSET -0.08000 -0.13745 9.77979
                         }
                    }
               }
          }
     }
}
MOTION
Frames: 7
Frame Time: 0.01667
-25.41209 91.99304 -7.36752 49.70297 22.93962 67.73777 -21.16708 37.41360 12.99160 0.01599 -0.00339 0.00185 -8.54530 12.56170 9.36955 0.72765 4.99255 6.31333 -54.96171 -41.12308 -18.60550 -15.05950 0.50728 -77.89529 9.97592 9.09324 -9.46914 10.57807 7.23895 9.00629 61.66006 27.65364 60.11280 0.78280 27.01055 97.36730 18.29152 13.25767 7.95799 51.30061 -22.39086 25.30197 -128.87666 59.92784 137.74701 -31.15428 -0.50304 0.46187 -30.03910 1.19656 3.04790 -47.47137 16.37658 37.79894 40.84071 20.20285 -41.36856 -29.73944 -0.00140 -0.00079 3.61400 -37.72440 17.45057 
-26.15909 91.73779 -6.92465 46.87387 23.40689 71.00866 -20.63682 36.40897 10.77308 0.01102 -0.00023 0.00145 -8.53209 12.33547 9.52467 1.31896 4.76366 6.49423 -54.45539 -48.35909 -20.30678 -18.09960 8.91536 -77.27587 7.77152 3.08010 -32.07940 11.48934 7.06983 9.05982 62.20715 27.02128 60.20304 0.68564 26.92089 97.86824 18.30548 13.03357 7.54619 43.44726 -23.24531 27.53257 -119.66901 62.70164 133.90013 -30.19440 -0.03311 0.08235 -26.53832 0.32207 1.77926 -45.70388 15.55130 33.93888 41.71947 20.16384 -42.12941 -29.73072 -0.00053 -0.00050 2.87568 -37.72244 17.64370 
-26.96014 91.82288 -6.55571 44.31905 23.78302 73.99986 -20.17361 35.49158 8.79251 0.00672 0.00242 0.00118 -8.71024 12.31260 9.68189 1.48658 4.76795 6.51578 -54.62521 -53.67137 -22.06540 -20.43024 15.30474 -76.95703 12.06077 7.35678 -12.63142 11.96716 7.12398 9.02054 62.86748 26.25057 60.34773 0.58301 26.82284 98.32046 18.63143 12.80819 6.75577 36.23963 -24.09991 30.34123 -109.37994 66.07872 127.87058 -30.10589 0.02171 0.02060 -22.70206 -1.10787 -0.45121 -44.33228 14.75830 30.54328 42.40578 19.89126 -42.72813 -29.64859 0.00106 -0.00014 2.25421 -37.52843 17.95725 
-27.80517 92.19640 -6.24227 42.04552 24.13271 76.70185 -20.86328 35.62708 8.12844 -0.05143 0.08858 0.03703 -9.39983 12.24894 9.89720 2.17477 3.82166 6.04085 -55.55037 -57.65682 -24.18610 -22.26453 20.53534 -77.41335 11.57498 3.77232 -25.84463 12.89155 6.14610 8.53508 63.54552 25.44607 60.49286 0.41697 26.74575 98.82209 18.65441 12.64708 6.32802 29.61775 -25.11636 33.76022 -100.48916 73.77078 121.22386 -30.01219 -0.01385 0.00544 -7.99519 9.22815 1.57058 -43.33763 14.07522 27.59741 42.79216 19.38296 -43.11153 -29.40986 0.00287 -0.00042 1.75460 -37.09900 18.42771 
-28.67419 92.70869 -5.94611 40.03308 24.48543 79.12469 -22.62809 36.60251 8.62094 -0.05719 0.08143 0.02943 -10.60065 12.37455 10.29065 3.07182 2.30240 5.19682 -57.09978 -60.83664 -26.87783 -23.66617 24.96395 -77.99551 14.14160 6.60415 -14.02381 14.09841 4.54476 7.74132 64.25604 24.60149 60.58657 0.18379 26.71336 99.41998 18.85909 12.48172 5.71807 23.49360 -26.29147 37.77589 -80.72697 82.04903 103.54381 -30.01172 -0.00376 0.00703 -14.18258 3.43265 1.49693 -42.62220 13.54215 25.06114 42.82943 18.66913 -43.28296 -28.97087 0.00448 -0.00166 1.32324 -36.44104 19.04165 
-29.53235 93.24130 -5.63826 38.22970 24.82752 81.29911 -24.13151 37.36341 9.01209 0.01030 -0.00727 -0.00789 -11.94777 12.79437 10.71936 -6.29600 8.07536 4.25462 -63.45619 -68.00134 -44.99472 -25.06585 28.80610 -78.80286 14.45553 4.37389 -21.70319 14.69786 3.52438 6.95064 64.98599 23.60561 60.59690 -0.08299 26.71685 100.06751 18.83434 12.42226 5.42607 18.32747 -27.63895 41.39240 23.54103 90.00000 0.00000 -20.63708 0.17910 0.16267 -4.88943 12.23815 1.95537 -42.04736 13.16109 22.87585 42.53941 17.77855 -43.27939 -28.33626 0.00549 -0.00360 0.88487 -35.61571 19.73861 
-30.35268 93.71064 -5.31969 36.50615 25.16991 83.38455 -25.52903 37.92901 9.37504 0.00680 -0.00355 -0.00518 -13.26706 13.37909 11.10028 -12.14425 12.11592 3.84128 -76.25566 -72.17956 -65.70299 -26.60023 32.48266 -79.49864 15.02215 3.49827 -24.81272 12.34713 4.88687 6.00068 67.37941 21.84141 62.93445 -0.46266 26.75127 100.96568 18.82188 12.37175 5.12522 13.45452 -29.07247 44.74017 60.28263 82.05141 -35.81639 -13.54041 0.11137 0.12060 0.27693 17.53234 1.86460 -41.49095 12.86966 20.80727 41.93414 16.79249 -43.18297 -27.50871 0.00677 -0.00554 0.39511 -34.65060 20.49741 
